<svg id="Layer_1" data-name="Layer 1" xmlns="http://www.w3.org/2000/svg" viewBox="0 0 312.85 286.53"><defs><style>.cls-1{fill:#776349;}.cls-2{fill:#644f3c;}.cls-3{fill:#93785c;}</style></defs><title>Artboard 11</title><rect class="cls-1" width="312.85" height="286.53"/><path class="cls-2" d="M26.5,286.53H0V0H26.5a1233.64,1233.64,0,0,1,8.33,140A1232.93,1232.93,0,0,1,26.5,286.53Z"/><path class="cls-2" d="M286.35,286.53h26.5V0h-26.5a1235.52,1235.52,0,0,0,0,286.53Z"/><path class="cls-3" d="M185,286.53h-26.5c3.39-28.33,6-58.33,7.35-89.85A1210.29,1210.29,0,0,0,158.48,0H185a1135.84,1135.84,0,0,1,8.85,121.35A1138.37,1138.37,0,0,1,185,286.53Z"/><path class="cls-3" d="M91,286.53H54c3.37-22,6.12-45,8-69.18A952.86,952.86,0,0,0,54,0H91c-3.39,37.31-5.68,77.18-6.32,119.35A1584.47,1584.47,0,0,0,91,286.53Z"/><path class="cls-2" d="M145,286.53h-37c3.37-22,6.12-45,8-69.18A952.86,952.86,0,0,0,108.05,0h37q-3.6,32-5.71,66A1285.31,1285.31,0,0,0,145,286.53Z"/><path class="cls-2" d="M259.41,286.53h-37a1511.35,1511.35,0,0,0,6.75-157.85c-.45-45.91-3-88.94-6.75-128.68h37a759.4,759.4,0,0,0,0,286.53Z"/></svg>