<svg id="Layer_1" data-name="Layer 1" xmlns="http://www.w3.org/2000/svg" viewBox="0 0 320.88 132.95"><defs><style>.cls-1{fill:#c09d6a;}.cls-2{fill:#af8d5e;}.cls-3{fill:#cfa779;}</style></defs><title>Artboard 7</title><path class="cls-1" d="M122.75,8V24.5S99.07,26.45,76.07,34s-71,32-71,32l48.5-5.5,82-24c-10.76,3.56-27,10.6-41.36,24.5A92.83,92.83,0,0,0,79.9,78.62c-5.25,8.57,1.25,11.89-.33,17.66C95.46,85.62,102,79.62,117.9,69l41.84-21a54.29,54.29,0,0,1-4.51,19c-7.2,16.31-20.55,24.29-25.66,27a72.81,72.81,0,0,0,24.21-4.33A66.54,66.54,0,0,0,179,74c13.78-13.78,15.39-27,15.39-27s17.09,1.42,27.67,12,45.5,27.5,45.5,27.5l-21-37.64L316.07,65s-26-20-44-28.5a169.3,169.3,0,0,0-36.81-12V8Z"/><circle class="cls-2" cx="144.39" cy="19.12" r="7.98"/><circle class="cls-2" cx="212.96" cy="23.65" r="3.99"/><circle class="cls-3" cx="155.02" cy="23.65" r="6.04"/><circle class="cls-3" cx="219" cy="17.61" r="6.04"/><circle class="cls-3" cx="186.33" cy="33.14" r="6.04"/><path class="cls-2" d="M89.42,78c-1-1.27,9-12.09,19.51-19.45s24.28-13.3,25.12-11.87C135.67,49.42,91.45,80.45,89.42,78Z"/><path class="cls-2" d="M255.74,74.31c.9-.88-5.81-9.84-13.08-16.24s-17.18-12-17.94-11C223.28,49,254,76,255.74,74.31Z"/><path class="cls-2" d="M296.57,56.57c.7-1.53-11.57-10.14-23.35-15.18-11.93-5.11-26.43-7.87-26.89-6.23C245.44,38.3,295.22,59.51,296.57,56.57Z"/><path class="cls-2" d="M158.45,83.08c-2.57-2.77,26.19-36.16,29.3-34.06,1.58,1.07-3.12,11.57-8.85,18.93C171.31,77.69,159.85,84.59,158.45,83.08Z"/><path class="cls-2" d="M39.92,55.84c-.81-2,18.29-12.43,36.2-18.25s39.67-8.66,40.2-6.54C117.33,35.11,41.49,59.72,39.92,55.84Z"/></svg>