<svg id="Layer_1" data-name="Layer 1" xmlns="http://www.w3.org/2000/svg" viewBox="0 0 573 244.53"><defs><style>.cls-1{fill:#c09d6a;}.cls-2{fill:#649b54;}.cls-3{fill:#72aa5e;}</style></defs><title>Artboard 3</title><rect class="cls-1" x="93.38" y="165.79" width="15.02" height="25.85"/><polygon class="cls-1" points="100.89 165.79 88.01 115.33 81.4 117.5 93.38 174.14 100.89 165.79"/><polygon class="cls-1" points="45.27 128.1 93.38 187.1 93.38 174.14 50.59 127.92 45.27 128.1"/><polygon class="cls-1" points="100.89 165.79 142.24 140.43 158.48 140.43 104.88 177.1 100.89 165.79"/><rect class="cls-1" x="249.86" y="211.65" width="15.02" height="25.85"/><polygon class="cls-1" points="257.37 211.65 246.83 153.91 257.37 155.52 264.88 211.65 257.37 211.65"/><polygon class="cls-1" points="298.93 171.48 264.88 227.02 264.88 211.65 292.5 170.35 298.93 171.48"/><polygon class="cls-1" points="257.37 211.65 218.88 177.1 209.17 178.71 253.38 222.96 257.37 211.65"/><path class="cls-2" d="M205.34,64.1c2.42,17.44-9.8,30.73-14.75,36.13-15.33,16.67-43.27,28-61.57,18.32-15.55-8.21-12-25.11-26.46-29.52-10-3-14.94,4-44.78,12.21-23.62,6.47-29,4.49-31,3.57-12.5-5.6-19.81-23.65-16.49-38.29C14.3,48.65,33.16,40.39,42,36.52c11.44-5,13.71-2.28,29.75-8.25C92.61,20.5,91.9,14.71,101,14.74c19.22.07,25.7,25.73,44.27,24.42,9.82-.69,10.4-8.1,20.86-9.15C182.07,28.41,202.58,44.18,205.34,64.1Z"/><path class="cls-3" d="M218.57,86c2.42,17.44-9.8,30.74-14.76,36.13-15.32,16.67-43.26,28-61.57,18.32-15.55-8.21-12-25.11-26.46-29.52-10-3-14.94,4-44.78,12.22-16.47,4.51-24.83,6.7-31,3.56C26.73,120,23.28,97.37,27.35,81.1c3-11.85,12-29.21,26.86-32.27,14.15-2.91,20.06,8.76,34.6,5.09s15.41-16.46,25.45-17.3c20.62-1.73,36.6,51.8,49.24,48.9,8.81-2,3.89-28.7,15.89-33.63C191.07,47.08,215.55,64.17,218.57,86Z"/><rect class="cls-1" x="403.5" y="194.7" width="15.02" height="25.85"/><polygon class="cls-1" points="411.01 194.7 398.13 144.25 391.52 146.41 403.5 203.06 411.01 194.7"/><polygon class="cls-1" points="355.38 157.02 403.5 216.01 403.5 203.06 360.71 156.83 355.38 157.02"/><polygon class="cls-1" points="411.01 194.7 452.36 169.34 468.6 169.34 415 206.02 411.01 194.7"/><path class="cls-2" d="M533.5,122.68c-5,3.95-14.11-5.42-28.67-.66-3.06,1-10.34,3.38-12.66,9.33-3.36,8.6,7.26,15.37,5.33,23.33-2.22,9.14-20,16.08-36,14.66-33.78-3-43.18-41.51-66.67-38.66-17.53,2.13-19.21,24.44-39.45,26.34-14.09,1.32-29.43-8-35.88-20.34-11.67-22.36-2.81-51.2,12.73-59.63,8.66-4.71,12.83.52,22.6-4.37,17.38-8.69,12.52-29.36,26.67-36,9.69-4.54,22,1.42,46.67,13.34,23.4,11.3,22.51,15.33,35.33,18.66,24.39,6.35,33.71-6.61,49.44.87C534.67,79.89,541.56,116.38,533.5,122.68Z"/><path class="cls-3" d="M561.52,129.69c-5,3.95-14.11-5.43-28.66-.67-3.07,1-10.35,3.38-12.67,9.34-3.35,8.59,7.26,15.37,5.33,23.33-2.21,9.14-20,16.08-36,14.66-33.78-3-43.18-41.52-66.66-38.66-17.54,2.13-19.22,24.43-39.45,26.33-14.1,1.33-29.44-8-35.89-20.33-11.66-22.36-2.81-51.21,12.73-59.64,8.67-4.7,12.83.53,22.61-4.36,17.37-8.69,12.51-29.37,26.66-36,9.69-4.54,22,1.42,46.67,13.33,23.4,11.31,22.51,15.33,35.33,18.67,24.39,6.34,33.71-6.62,49.44.86C562.7,86.89,569.59,123.38,561.52,129.69Z"/><path class="cls-2" d="M322.11,79.92c.3,13.19-17,17.66-16.63,30.64.41,13.64,19.79,16.89,19.78,27.9,0,12.34-24.36,28.37-48.6,27.49-23.83-.86-30.23-17.47-48.48-11.62-13.93,4.46-15.06,15.7-29.66,17.5-2.12.26-21.65,2.32-30.11-14.22-4.88-9.53-4.82-22.76-.45-31.73,4.67-9.59,11.71-9.06,12.58-15.87,1.38-10.71-15.33-17.93-13.63-27.14,1.36-7.3,13.14-9.71,15-10.06,12.23-2.29,15.93,7.19,25.36,5.25,16.62-3.4,18.41-26,31.27-26.58,13.35-.64,17.6,23.4,31.91,23,11.84-.35,14.09-17,27-17.5C308.9,56.47,321.86,68.67,322.11,79.92Z"/><path class="cls-3" d="M322.83,94.68c.81,14.53-3.8,16.91-1.62,26.23,3.82,16.3,20.11,18.38,19.78,27.9-.37,10.7-21.52,23.94-42.06,22.67-29.54-1.82-41.44-32.64-57.43-27.46-14.78,4.78-10.48,33-27.25,38.16-10.3,3.15-24.58-3.41-30.11-14.22-4.88-9.53-4.82-22.77-.45-31.73,4.67-9.59,11.71-9.07,12.58-15.87,1.38-10.71-15.33-17.94-13.63-27.14,1.37-7.35,14.26-9.92,15-10.06,19.58-3.91,31.65,16.31,42.55,11.52,11.5-5.05,7.16-31.61,14.08-32.86,8-1.44,15.43,33.79,29.25,34.2,13.05.38,20.38-30.6,29.63-28.73C319.87,68.66,322.38,86.44,322.83,94.68Z"/></svg>