<svg id="Layer_1" data-name="Layer 1" xmlns="http://www.w3.org/2000/svg" xmlns:xlink="http://www.w3.org/1999/xlink" viewBox="0 0 312.85 286.53"><defs><style>.cls-1{fill:none;}.cls-2{clip-path:url(#clip-path);}.cls-3{fill:#567746;}.cls-4{fill:#345528;}.cls-5{fill:#3e6131;}</style><clipPath id="clip-path"><rect class="cls-1" width="312.85" height="286.53"/></clipPath></defs><title>Artboard 11 copy</title><g class="cls-2"><rect class="cls-3" y="-3.98" width="312.85" height="290.51"/><ellipse class="cls-4" cx="222.42" cy="75.28" rx="74.64" ry="43.28"/><ellipse class="cls-5" cx="90.98" cy="60.05" rx="75.42" ry="43.73"/><ellipse class="cls-5" cx="222.42" cy="237.62" rx="79.48" ry="46.08"/><ellipse class="cls-4" cx="151.96" cy="160.44" rx="79.48" ry="46.08"/><ellipse class="cls-5" cx="89.49" cy="208.64" rx="79.48" ry="46.08"/><ellipse class="cls-4" cx="43.69" cy="132.33" rx="28.79" ry="16.69"/><ellipse class="cls-5" cx="250.21" cy="79.82" rx="27.8" ry="16.12"/><ellipse class="cls-4" cx="100.28" cy="215.45" rx="27.8" ry="16.12"/><ellipse class="cls-4" cx="62.64" cy="72.16" rx="27.8" ry="16.12"/><ellipse class="cls-4" cx="114.12" cy="46.07" rx="23.15" ry="13.42"/><ellipse class="cls-4" cx="268.71" cy="215.45" rx="27.8" ry="16.12"/><ellipse class="cls-4" cx="209.38" cy="252.12" rx="27.8" ry="16.12"/><ellipse class="cls-4" cx="41.99" cy="268.34" rx="24.57" ry="14.25"/><ellipse class="cls-5" cx="122.57" cy="266.06" rx="16.6" ry="9.62"/><ellipse class="cls-4" cx="176.26" cy="23.64" rx="15.44" ry="8.95"/><ellipse class="cls-4" cx="278.01" cy="22.3" rx="15.44" ry="8.95"/><ellipse class="cls-5" cx="272.13" cy="134.95" rx="23.31" ry="13.51"/><ellipse class="cls-5" cx="163.46" cy="156.78" rx="23.31" ry="13.51"/><ellipse class="cls-4" cx="259.41" cy="175.61" rx="23.31" ry="13.51"/></g></svg>