<svg id="Layer_1" data-name="Layer 1" xmlns="http://www.w3.org/2000/svg" viewBox="0 0 105.5 288.82"><defs><style>.cls-1{fill:#72aa5e;}.cls-2{fill:#649b54;}</style></defs><title>leftgrass</title><path class="cls-1" d="M100.33,133.29c-9.48,17.45-25.83,41.36-54.19,65.05A287.58,287.58,0,0,1,0,229.61v28.77C77.47,218.35,100.33,133.29,100.33,133.29Z"/><path class="cls-2" d="M0,258.38v31.44c19.34-13.8,47.8-37.46,69.85-72.09,21.67-34,28.3-64.78,30.48-84.44C100.33,133.29,77.47,218.35,0,258.38Z"/><path class="cls-1" d="M79,3.49A239,239,0,0,1,36.33,72.82,236.82,236.82,0,0,1,0,106.16v30.66C61,94.16,79,3.49,79,3.49Z"/><path class="cls-2" d="M0,136.82v33.51A261.83,261.83,0,0,0,55,93.49a262.06,262.06,0,0,0,24-90S61,94.16,0,136.82Z"/><path class="cls-1" d="M91.5,66.15A244.88,244.88,0,0,1,54,122.65,245.06,245.06,0,0,1,0,168.24v30.67c19.72-12.44,56.88-40.06,78.36-89A189.5,189.5,0,0,0,91.5,66.15Z"/><path class="cls-2" d="M0,198.91v33.5A523.11,523.11,0,0,1,106.5,107.65,332.08,332.08,0,0,0,0,198.91Z"/></svg>