<svg id="Layer_1" data-name="Layer 1" xmlns="http://www.w3.org/2000/svg" viewBox="0 0 105.5 288.82"><defs><style>.cls-1{fill:#72aa5e;}.cls-2{fill:#649b54;}</style></defs><title>rightgrass</title><path class="cls-1" d="M6.17,133.29c9.48,17.45,25.83,41.36,54.19,65.05a287.58,287.58,0,0,0,46.14,31.27v28.77C29,218.35,6.17,133.29,6.17,133.29Z"/><path class="cls-2" d="M106.5,258.38v31.44C87.16,276,58.7,252.36,36.65,217.73,15,183.69,8.35,153,6.17,133.29,6.17,133.29,29,218.35,106.5,258.38Z"/><path class="cls-1" d="M27.5,3.49A239,239,0,0,0,70.17,72.82a236.82,236.82,0,0,0,36.33,33.34v30.66C45.5,94.16,27.5,3.49,27.5,3.49Z"/><path class="cls-2" d="M106.5,136.82v33.51a261.83,261.83,0,0,1-55-76.84,262.06,262.06,0,0,1-24-90S45.5,94.16,106.5,136.82Z"/><path class="cls-1" d="M15,66.15a244.88,244.88,0,0,0,37.5,56.5,245.06,245.06,0,0,0,54,45.59v30.67c-19.72-12.44-56.88-40.06-78.36-89A189.5,189.5,0,0,1,15,66.15Z"/><path class="cls-2" d="M106.5,198.91v33.5A524,524,0,0,0,55,162.15a523,523,0,0,0-55-54.5,332.73,332.73,0,0,1,60.5,42A332.83,332.83,0,0,1,106.5,198.91Z"/></svg>