<svg id="Layer_1" data-name="Layer 1" xmlns="http://www.w3.org/2000/svg" viewBox="0 0 573 127.54"><defs><style>.cls-1{fill:#c09d6a;}</style></defs><title>Artboard 5</title><polygon class="cls-1" points="93.28 22.17 54.16 46.26 80.6 37.88 75.09 53.52 92.05 36.78 95.36 48.68 105.27 37.85 128.85 46.7 124.44 40.31 150.38 44.6 108.6 22.17 93.28 22.17"/><polygon class="cls-1" points="249.76 67.17 210.63 91.26 237.07 82.89 231.56 98.53 248.53 81.79 251.83 93.69 261.75 82.85 285.32 91.7 280.92 85.31 306.86 89.61 265.08 67.17 249.76 67.17"/><polygon class="cls-1" points="403.4 50.49 364.28 74.58 390.71 66.21 385.21 81.85 402.17 65.11 405.48 77 415.39 66.17 438.96 75.02 434.56 68.63 460.5 72.93 418.72 50.49 403.4 50.49"/></svg>