<svg id="Layer_1" data-name="Layer 1" xmlns="http://www.w3.org/2000/svg" viewBox="0 0 612 435.02"><defs><style>.cls-1{fill:#cfa779;}.cls-2{fill:#c09d6a;}.cls-3{fill:#af8d5e;}.cls-4{fill:#649b54;}.cls-5{fill:#72aa5e;}.cls-6{fill:#8fc47c;}</style></defs><title>Artboard 1</title><path class="cls-1" d="M164.51,317.45a326.91,326.91,0,0,0,37.57,37.11,329.28,329.28,0,0,0,72.11,46V373c-20.5-4.88-56.35-17.09-77.68-49.57a97.36,97.36,0,0,1-6-10.5C184.13,314.78,170.88,315.63,164.51,317.45Z"/><path class="cls-2" d="M164.51,325.76a326.12,326.12,0,0,0,37.57,37.12,329.2,329.2,0,0,0,72.11,46V381.34c-20.5-4.87-56.35-17.09-77.68-49.57a95.47,95.47,0,0,1-6-10.5C184.13,323.09,170.88,323.94,164.51,325.76Z"/><polygon class="cls-1" points="452.4 342.95 386.69 410.42 386.69 383.54 433 337.43 452.4 342.95"/><path class="cls-2" d="M456.66,344.1a215,215,0,0,1-70,72.18V389.4a63.73,63.73,0,0,0,50.85-50.63Z"/><rect class="cls-2" x="274.19" y="297.25" width="112.5" height="122.73"/><circle class="cls-3" cx="299.09" cy="314.03" r="12.08"/><circle class="cls-1" cx="313.81" cy="328.77" r="12.08"/><circle class="cls-3" cx="364.4" cy="397.98" r="12.08"/><circle class="cls-1" cx="298.39" cy="377.84" r="8.06"/><circle class="cls-3" cx="334.36" cy="361.97" r="7.81"/><circle class="cls-1" cx="368.73" cy="348.58" r="10.03"/><circle class="cls-1" cx="368.3" cy="316.9" r="2.45"/><circle class="cls-3" cx="363.53" cy="322.09" r="5.2"/><circle class="cls-3" cx="296.37" cy="389.25" r="6.04"/><circle class="cls-1" cx="351.87" cy="406.49" r="6.04"/><path class="cls-4" d="M569.93,157.65c6.58,47.49-26.68,83.68-40.17,98.36C488,301.4,412,332.17,362.14,305.88c-42.32-22.34-32.57-68.35-72-80.35-27.25-8.28-40.67,11-121.9,33.25-44.85,12.28-67.62,18.24-84.5,9.69-36-18.24-45.42-79.8-34.35-124.09,8.08-32.27,32.74-79.52,73.14-87.85,38.5-7.94,54.6,23.83,94.19,13.85C255.78,60.54,255.62,26.7,286,23.29c46-5.17,68.2,70.18,120.51,66.49,26.73-1.89,28.32-22.07,56.8-24.94C506.58,60.49,562.41,103.43,569.93,157.65Z"/><path class="cls-5" d="M605.94,231.23c7.46,53.86-33.89,92.66-40.17,98.35-55.1,49.92-134.6,27.67-139.68,26.16-55-16.32-53.46-51.18-100-56.63-31.22-3.66-38.5,10.41-121.9,33.24-44.85,12.28-67.62,18.25-84.5,9.7-36-18.24-45.42-79.8-34.35-124.09,8.07-32.28,32.74-79.52,73.13-87.85,38.51-7.94,54.61,23.83,94.2,13.85,39.09-9.85,38.92-43.69,69.26-47.1,46-5.17,68.21,70.18,120.52,66.49,26.73-1.88,28.32-22.07,56.8-24.93C542.59,134.07,598.42,177,605.94,231.23Z"/><ellipse class="cls-4" cx="193.67" cy="198.03" rx="21.05" ry="10.53"/><ellipse class="cls-6" cx="251.59" cy="262.78" rx="36.87" ry="18.43"/><ellipse class="cls-6" cx="293.51" cy="169.3" rx="28.27" ry="14.14"/><ellipse class="cls-6" cx="129.28" cy="247.95" rx="28.27" ry="14.14"/><ellipse class="cls-4" cx="150.68" cy="312.96" rx="28.27" ry="14.14"/><ellipse class="cls-4" cx="472.83" cy="333.48" rx="28.27" ry="14.14"/><ellipse class="cls-6" cx="552.83" cy="221.89" rx="28.27" ry="14.14"/><ellipse class="cls-6" cx="570.3" cy="236.03" rx="14.14" ry="7.07"/><ellipse class="cls-5" cx="72.85" cy="173.39" rx="11.49" ry="5.74"/><ellipse class="cls-5" cx="369.82" cy="99.84" rx="11.49" ry="5.74"/><ellipse class="cls-5" cx="528.99" cy="119.17" rx="11.49" ry="5.74"/><ellipse class="cls-5" cx="84.34" cy="167.65" rx="11.49" ry="5.74"/><ellipse class="cls-6" cx="129.28" cy="99.84" rx="30.4" ry="15.2"/><ellipse class="cls-5" cx="449.61" cy="119.17" rx="27.66" ry="13.83"/><ellipse class="cls-5" cx="234.27" cy="126.09" rx="13.83" ry="6.91"/><ellipse class="cls-5" cx="279.68" cy="61.26" rx="13.83" ry="6.91"/><ellipse class="cls-5" cx="164.51" cy="106.76" rx="13.83" ry="6.91"/><ellipse class="cls-5" cx="103.01" cy="115.04" rx="13.83" ry="6.91"/><ellipse class="cls-6" cx="270.06" cy="73.83" rx="17.96" ry="8.98"/><ellipse class="cls-6" cx="396.5" cy="224.24" rx="39.58" ry="19.79"/><ellipse class="cls-6" cx="419.25" cy="247.95" rx="29.66" ry="14.83"/><ellipse class="cls-4" cx="185.56" cy="211.36" rx="21.05" ry="10.53"/><ellipse class="cls-4" cx="219.35" cy="267.42" rx="21.05" ry="10.53"/><ellipse class="cls-4" cx="461.53" cy="262.78" rx="39.58" ry="19.79"/><ellipse class="cls-4" cx="495.59" cy="171.37" rx="14.14" ry="7.07"/><ellipse class="cls-4" cx="372.47" cy="155.16" rx="14.14" ry="7.07"/><ellipse class="cls-4" cx="335.92" cy="269.85" rx="14.14" ry="7.07"/><ellipse class="cls-4" cx="554.03" cy="300.88" rx="10.02" ry="5.01"/><ellipse class="cls-4" cx="279.38" cy="183.43" rx="14.14" ry="7.07"/><ellipse class="cls-6" cx="444.56" cy="136.66" rx="14.14" ry="7.07"/></svg>