<svg id="Layer_1" data-name="Layer 1" xmlns="http://www.w3.org/2000/svg" viewBox="0 0 612 792"><defs><style>.cls-1{fill:#c09d6a;}.cls-2{fill:#649b54;}.cls-3{fill:#72aa5e;}</style></defs><title>Artboard 3</title><rect class="cls-1" x="271.56" y="487.24" width="23.18" height="39.89"/><polygon class="cls-1" points="283.15 487.24 263.27 409.37 253.07 412.71 271.56 500.13 283.15 487.24"/><polygon class="cls-1" points="197.3 429.08 271.56 520.13 271.56 500.13 205.51 428.79 197.3 429.08"/><polygon class="cls-1" points="283.15 487.24 346.97 448.1 372.03 448.1 289.3 504.7 283.15 487.24"/><path class="cls-2" d="M444.36,330.3c3.73,26.92-15.13,47.44-22.78,55.76-23.66,25.73-66.78,43.18-95,28.27-24-12.66-18.46-38.75-40.83-45.55-15.45-4.69-23.06,6.24-69.11,18.85-25.43,7-38.34,10.34-47.91,5.5-20.42-10.34-25.75-45.25-19.47-70.36,4.58-18.29,18.56-45.08,41.46-49.8,21.83-4.5,31,13.51,53.4,7.85,22.16-5.58,22.07-24.76,39.27-26.7,26.08-2.93,38.67,39.79,68.33,37.7,15.15-1.07,16.05-12.51,32.19-14.14C408.44,275.21,440.09,299.56,444.36,330.3Z"/><path class="cls-3" d="M464.77,364.07C468.5,391,449.64,411.51,442,419.83c-23.65,25.73-66.77,43.18-95,28.27-24-12.66-18.47-38.75-40.84-45.55-15.45-4.7-23.05,6.24-69.11,18.85-25.42,7-38.33,10.34-47.9,5.5-20.43-10.34-25.76-45.25-19.48-70.36,4.58-18.29,18.56-45.08,41.46-49.8,21.83-4.5,31,13.51,53.41,7.85,22.16-5.58,22.06-24.77,39.26-26.7,26.08-2.93,38.67,39.79,68.33,37.7,15.15-1.07,16-12.52,32.2-14.14C428.85,309,460.51,333.33,464.77,364.07Z"/></svg>