<svg id="Layer_1" data-name="Layer 1" xmlns="http://www.w3.org/2000/svg" viewBox="0 0 573 286.53"><defs><style>.cls-1{fill:#c09d6a;}</style></defs><title>Artboard 3 copy</title><path class="cls-1" d="M93.56,6.59a495.11,495.11,0,0,0,0,104.23h14.66a240.26,240.26,0,0,1,0-104.23Z"/><path class="cls-1" d="M108.22,110.82A492,492,0,0,1,111,162.27a494.52,494.52,0,0,1-2.75,52.79H93.56a240.29,240.29,0,0,0,5.72-51.84,240.46,240.46,0,0,0-5.72-52.4Z"/><path class="cls-1" d="M264.69,51.6a491.66,491.66,0,0,1,2.76,51.45,491.57,491.57,0,0,1-2.76,52.78H250A240.82,240.82,0,0,0,255.76,104,241,241,0,0,0,250,51.6Z"/><path class="cls-1" d="M250,155.83a493.32,493.32,0,0,0,0,104.23h14.65a240.67,240.67,0,0,1,0-104.23Z"/><path class="cls-1" d="M403.68,34.92a495.11,495.11,0,0,0,0,104.23h14.66a240.26,240.26,0,0,1,0-104.23Z"/><path class="cls-1" d="M418.34,139.15a494.55,494.55,0,0,1,2.75,51.45,494.18,494.18,0,0,1-2.75,52.78H403.68a240.26,240.26,0,0,0,0-104.23Z"/></svg>